<svg id="logosandtypes_com" data-name="logosandtypes com" xmlns="http://www.w3.org/2000/svg" viewBox="0 0 150 150"><defs><style>.cls-1{fill:none;}.cls-2{fill:#da3743;}</style></defs><g id="Layer_3" data-name="Layer 3"><g id="Layer_2" data-name="Layer 2"><path id="Layer_3-2" data-name="Layer 3" class="cls-1" d="M0,.2H150v150H0Z" transform="translate(0 -0.2)"/></g></g><path class="cls-2" d="M86.81,25.74A49.17,49.17,0,1,0,136,74.89,49.17,49.17,0,0,0,86.81,25.74ZM99.1,74.89a12.57,12.57,0,0,1-12.29,12.3A12.15,12.15,0,0,1,74.53,75.11v-.22A12.15,12.15,0,0,1,86.62,62.62h.19A12.18,12.18,0,0,1,99.1,74.7Z" transform="translate(0 -0.2)"/><circle class="cls-2" cx="12.79" cy="74.7" r="12.29"/></svg>